<?xml version="1.0" encoding="utf-8"?>
<!-- Generator: Adobe Illustrator 19.1.0, SVG Export Plug-In . SVG Version: 6.00 Build 0)  -->
<svg version="1.1" id="Calque_1" xmlns="http://www.w3.org/2000/svg" xmlns:xlink="http://www.w3.org/1999/xlink" x="0px" y="0px"
	 viewBox="0 0 790.4 404.4" style="enable-background:new 0 0 790.4 404.4;" xml:space="preserve">
<style type="text/css">
	.st0{fill:#25378D;}
	.st1{fill:#006CB6;}
	.st2{fill:#3964AE;stroke:#000000;stroke-width:6.0412;stroke-miterlimit:10;}
</style>
<g>
	<path class="st0" d="M186.9,267.3V124.6h23.4v142.7h26.3c12.4,0,0.6,5.1,0.6,5.1h-69.5v-5.1H186.9z"/>
	<polygon class="st0" points="361.3,267.2 314,123.4 309.9,123.4 303.1,162.5 303.5,162.5 319.7,215 321.6,221.3 335.5,267.2 
		314.2,267.2 314.2,272.3 380.1,272.3 380.1,267.2 	"/>
	<polygon class="st0" points="409.8,126.2 409.8,267.2 390.5,267.2 390.5,272.3 451.5,272.3 451.5,267.2 433.1,267.2 433.1,207 
		433.1,200.6 433.1,126.2 	"/>
	<path class="st0" d="M594.1,273.8c-22.6,0-40.2-7.2-52.8-21.8c-12.6-14.5-18.9-33.6-18.9-57.2c0-23.2,6.8-42.1,20.3-56.7
		c13.5-14.6,31.6-22,54.4-22c15.8,0,0.8,4.5-1.3,4.5c-29.2,0-45.2,26.1-45.2,74.2c0,7.3,0.2,13.7,0.6,19.3c0.4,5.6,1.5,11.9,3.2,19
		c1.7,7,4.1,12.9,7.2,17.5c3.1,4.6,7.4,8.5,13,11.7c5.6,3.2,12.3,4.8,20.2,4.8c10.7,0,19.1-2.3,25.2-6.8
		C626,255.8,613.7,273.8,594.1,273.8z"/>
	<path class="st1" d="M306.1,204.2c-36.4,37.6-82.4,12.9-80.6-13.7c1.2-18.1,30.9-13.9,30.9,6.8C256.4,218,276.1,224.9,306.1,204.2z
		"/>
	<path class="st0" d="M616.4,221.5c0-24.3,30.7-11,30.7-20.3c0,14.4-12.2,5.6-10.8,36.3c0.8,16.2,3,39.7-43,36.3
		C626.7,273.7,616.4,237.9,616.4,221.5z"/>
	<path class="st0" d="M175.1,267.3h23.3h26.3c12.4,0,21.8-3.4,28.4-10c6.7-6.7,11.3-6.5,14.4-25.7h4.9v40.9H210v-5.1H175.1z"/>
	<path class="st1" d="M422.7,204.2c36.4,37.6,82.4,12.9,80.6-13.7c-1.2-18.1-30.9-13.9-30.9,6.8C472.4,218,452.7,224.9,422.7,204.2z
		"/>
	<path class="st2" d="M634.3,143.1"/>
	<path class="st1" d="M655.4,162.6c-23.3-24.1-52.8-8.3-51.6,8.7c0.8,11.6,19.8,8.9,19.8-4.3C623.5,153.7,636.1,149.3,655.4,162.6z"
		/>
	<path class="st1" d="M206.7,116.2c-23.3-24.1-52.8-8.3-51.6,8.7c0.8,11.6,19.8,8.9,19.8-4.3C174.9,107.4,187.5,103,206.7,116.2z"/>
	<path class="st1" d="M432.3,116.2c23.3-24.1,52.8-8.3,51.6,8.7c-0.8,11.6-19.8,8.9-19.8-4.3C464.2,107.4,451.6,103,432.3,116.2z"/>
	<g>
		<path class="st0" d="M167.6,297h3.4v19.9h11v3.3h-14.4V297z"/>
		<path class="st0" d="M189.3,313.2c0,1.3,0.4,2.3,1.1,3c0.7,0.7,1.6,1.1,2.7,1.1c1.3,0,2.5-0.5,3.5-1.6l2.3,2
			c-1.6,1.8-3.6,2.7-5.8,2.7c-0.8,0-1.7-0.1-2.5-0.4c-0.4-0.1-0.8-0.3-1.2-0.6c-0.4-0.2-0.8-0.5-1.1-0.8c-0.7-0.6-1.2-1.5-1.7-2.6
			c-0.5-1.1-0.7-2.4-0.7-4.1c0-1.6,0.2-3,0.6-4.1c0.4-1.1,0.9-2,1.5-2.6c0.6-0.6,1.4-1.1,2.1-1.4c0.8-0.3,1.6-0.4,2.3-0.4
			c1.8,0,3.4,0.6,4.6,1.9c1.3,1.3,1.9,3,1.9,5.1v2.7H189.3z M196.1,310.4c0-1.3-0.4-2.3-1-2.9c-0.6-0.6-1.4-0.9-2.4-0.9
			c-1,0-1.8,0.3-2.4,0.9c-0.6,0.7-0.9,1.6-1,2.9H196.1z"/>
		<path class="st0" d="M205.1,315.1c1.3,1.4,3,2.1,5.1,2.1c0.9,0,1.7-0.2,2.3-0.6c0.6-0.4,0.9-0.9,0.9-1.6c0-0.6-0.2-1-0.5-1.2
			c-0.4-0.2-0.9-0.4-1.4-0.4l-2.8-0.3c-1.4-0.1-2.4-0.6-3.3-1.4c-0.9-0.8-1.3-1.9-1.3-3.3c0-1.7,0.6-3,1.7-3.8
			c1.1-0.9,2.5-1.3,4.2-1.3c0.7,0,1.4,0,2,0.1c0.6,0.1,1.1,0.3,1.6,0.4c1,0.4,1.9,1,2.7,1.7l-2,2.4c-0.6-0.5-1.3-0.8-2-1.1
			c-0.7-0.3-1.5-0.4-2.4-0.4c-1,0-1.7,0.2-2.1,0.6c-0.4,0.4-0.6,0.8-0.6,1.4c0,0.4,0.1,0.7,0.5,1c0.3,0.3,0.9,0.5,1.6,0.6l2.7,0.2
			c1.7,0.1,2.9,0.6,3.6,1.6c0.7,0.9,1,2,1,3.4c0,1.6-0.7,2.8-1.9,3.7c-1.2,0.9-2.8,1.3-4.7,1.4c-2.6,0-5-1-7-3L205.1,315.1z"/>
		<path class="st0" d="M242.9,315h-8.5l-1.7,5.2H229l8.2-23.2h2.9l8.2,23.2h-3.6L242.9,315z M241.9,311.9l-3.3-10.2h-0.1l-3.3,10.2
			H241.9z"/>
		<path class="st0" d="M264.2,317.5c-0.7,0.8-1.5,1.5-2.5,2c-0.9,0.5-2,0.8-3.3,0.8c-1.9,0-3.5-0.7-5-2c-1.5-1.3-2.2-3.5-2.3-6.5
			c0-3,0.8-5.2,2.3-6.5c1.4-1.3,3.1-2,5-2c1.2,0,2.3,0.3,3.3,0.8c0.9,0.5,1.8,1.2,2.5,2.1l-2.4,2.2c-0.8-1.1-1.9-1.7-3.3-1.7
			c-2.7,0-4.1,1.7-4.2,5.2c0,3.5,1.4,5.2,4.2,5.1c1.4,0,2.4-0.6,3.3-1.7L264.2,317.5z"/>
		<path class="st0" d="M280.1,317.5c-0.7,0.8-1.5,1.5-2.5,2c-1,0.5-2.1,0.8-3.3,0.8c-1.9,0-3.6-0.7-5-2c-1.5-1.3-2.2-3.5-2.3-6.5
			c0-3,0.8-5.2,2.3-6.5c1.4-1.3,3.1-2,5-2c1.2,0,2.3,0.3,3.3,0.8c0.9,0.5,1.8,1.2,2.5,2.1l-2.4,2.2c-0.8-1.1-1.9-1.7-3.3-1.7
			c-2.7,0-4.1,1.7-4.2,5.2c0,3.5,1.4,5.2,4.2,5.1c1.4,0,2.4-0.6,3.3-1.7L280.1,317.5z"/>
		<path class="st0" d="M283.5,311.9c0-1.7,0.1-3.1,0.4-4c0.3-0.9,0.7-1.7,1.3-2.3c0.4-0.6,1.1-1,1.9-1.5c0.8-0.4,1.8-0.6,3-0.6
			c1.3,0,2.3,0.2,3.1,0.6c0.8,0.4,1.4,0.9,1.8,1.5c0.6,0.6,1.1,1.4,1.4,2.3c0.2,0.9,0.4,2.3,0.4,4c0,1.7-0.1,3.1-0.4,4
			c-0.3,0.9-0.7,1.7-1.4,2.4c-0.2,0.2-0.5,0.5-0.8,0.7c-0.3,0.3-0.6,0.5-1,0.7c-0.8,0.5-1.8,0.7-3.1,0.7c-1.2,0-2.2-0.3-3-0.7
			c-0.8-0.4-1.4-0.9-1.9-1.4c-0.6-0.7-1-1.5-1.3-2.4C283.7,315,283.5,313.6,283.5,311.9z M293.5,311.9c0-1.2-0.1-2-0.2-2.6
			c-0.1-0.5-0.3-1-0.6-1.4c-0.2-0.4-0.6-0.7-1-0.9c-0.4-0.2-1-0.3-1.5-0.3c-0.6,0-1.1,0.1-1.5,0.3c-0.4,0.2-0.8,0.5-1.1,0.9
			c-0.3,0.4-0.5,0.9-0.6,1.4c-0.1,0.5-0.2,1.4-0.2,2.6c0,1.2,0.1,2,0.2,2.5c0.1,0.5,0.3,1,0.6,1.4c0.3,0.3,0.6,0.6,1.1,0.8
			c0.5,0.2,1,0.4,1.5,0.4c0.6,0,1.1-0.1,1.5-0.4c0.5-0.2,0.8-0.5,1-0.8c0.3-0.4,0.5-0.9,0.6-1.4
			C293.4,313.9,293.5,313.1,293.5,311.9z"/>
		<path class="st0" d="M302.1,303.7h3.2v1.8h0.1c1.1-1.3,2.5-2,4.2-2c1.3,0,2.4,0.4,3.4,1.3l-2.3,2.9c-0.7-0.6-1.4-0.8-2.1-0.8
			c-0.8,0-1.5,0.3-2.1,0.8c-0.7,0.5-1,1.4-1,2.6v10h-3.2V303.7z"/>
		<path class="st0" d="M325.2,318.5c-1.1,1.2-2.4,1.9-4.1,1.9c-1,0-1.8-0.2-2.5-0.6c-0.7-0.4-1.3-0.9-1.8-1.5
			c-0.4-0.5-0.7-1.2-0.9-2.1c-0.2-0.8-0.3-2.2-0.3-4.2c0-2,0.1-3.4,0.3-4.2c0.1-0.8,0.4-1.5,0.9-2.1c0.9-1.4,2.3-2.1,4.3-2.1
			c0.8,0,1.6,0.2,2.3,0.5c0.6,0.4,1.3,0.8,1.9,1.4V297h3.2v23.2h-3.2V318.5z M322,306.8c-0.8,0-1.3,0.1-1.7,0.4
			c-0.4,0.3-0.8,0.7-1,1.2c-0.2,0.5-0.3,1-0.4,1.6c-0.1,0.6-0.1,1.3-0.1,1.9c0,0.6,0,1.2,0.1,1.8c0.1,0.6,0.2,1.2,0.4,1.7
			c0.2,0.5,0.5,0.9,1,1.2c0.4,0.3,1,0.5,1.7,0.5c0.8,0,1.4-0.2,1.8-0.5c0.4-0.3,0.7-0.7,0.9-1.2c0.2-0.5,0.3-1.1,0.4-1.7
			c0-0.6,0-1.2,0-1.8c0-0.6,0-1.3,0-1.8c-0.1-0.6-0.2-1.1-0.4-1.6c-0.2-0.5-0.5-0.9-0.9-1.2C323.4,306.9,322.8,306.8,322,306.8z"/>
		<path class="st0" d="M334.5,315.1c1.3,1.4,3,2.1,5.1,2.1c0.9,0,1.7-0.2,2.3-0.6c0.6-0.4,0.9-0.9,0.9-1.6c0-0.6-0.2-1-0.5-1.2
			c-0.4-0.2-0.8-0.4-1.4-0.4l-2.8-0.3c-1.3-0.1-2.4-0.6-3.3-1.4c-0.9-0.8-1.3-1.9-1.3-3.3c0-1.7,0.6-3,1.7-3.8
			c1.1-0.9,2.5-1.3,4.2-1.3c0.7,0,1.4,0,2,0.1c0.6,0.1,1.1,0.3,1.6,0.4c1,0.4,1.9,1,2.7,1.7l-2,2.4c-0.6-0.5-1.3-0.8-2-1.1
			c-0.7-0.3-1.5-0.4-2.3-0.4c-1,0-1.7,0.2-2.1,0.6c-0.4,0.4-0.6,0.8-0.6,1.4c0,0.4,0.1,0.7,0.5,1c0.3,0.3,0.9,0.5,1.6,0.6l2.7,0.2
			c1.7,0.1,2.9,0.6,3.6,1.6c0.7,0.9,1,2,1,3.4c0,1.6-0.7,2.8-1.9,3.7c-1.2,0.9-2.8,1.3-4.7,1.4c-2.6,0-5-1-7-3L334.5,315.1z"/>
		<path class="st0" d="M360.7,297h8.1c0.9,0,1.7,0.1,2.6,0.3c0.8,0.2,1.7,0.7,2.5,1.4c0.7,0.5,1.3,1.3,1.7,2.2
			c0.5,0.9,0.7,2,0.7,3.3c0,1.7-0.6,3.3-1.8,4.7c-1.2,1.5-3,2.2-5.3,2.3h-5.2v9.1h-3.4V297z M364.1,307.8h5.1c1.3,0,2.2-0.4,2.9-1.2
			c0.6-0.8,0.9-1.6,0.9-2.6c0-0.8-0.1-1.4-0.4-2c-0.3-0.5-0.6-0.9-1.1-1.1c-0.7-0.5-1.5-0.7-2.4-0.7h-4.9V307.8z"/>
		<path class="st0" d="M388.8,318.7L388.8,318.7c-0.4,0.6-0.8,1-1.4,1.2c-0.6,0.3-1.5,0.4-2.6,0.4c-1.8,0-3.2-0.5-4.1-1.5
			c-1-0.9-1.5-2.1-1.5-3.6c0-1.4,0.4-2.5,1.3-3.5c0.9-0.9,2.2-1.4,3.9-1.4h4.5v-1.8c0-1.5-1.1-2.2-3.3-2.1c-0.8,0-1.4,0.1-1.9,0.3
			c-0.5,0.2-0.9,0.5-1.1,1l-2.5-2c1.2-1.6,3-2.4,5.4-2.4c2,0,3.6,0.4,4.8,1.2c1.2,0.8,1.8,2.3,1.8,4.3v11.3h-3.2V318.7z
			 M388.8,313.2H385c-1.9,0-2.8,0.7-2.8,2c0,0.5,0.2,1,0.7,1.4c0.5,0.4,1.2,0.7,2.3,0.7c1.3,0,2.3-0.1,2.9-0.5
			c0.5-0.4,0.8-1.2,0.8-2.4V313.2z"/>
		<path class="st0" d="M398.2,303.7h3.2v1.8h0.1c1.1-1.3,2.4-2,4.2-2c1.3,0,2.4,0.4,3.4,1.3l-2.4,2.9c-0.7-0.6-1.4-0.8-2.1-0.8
			c-0.8,0-1.5,0.3-2.1,0.8c-0.7,0.5-1,1.4-1,2.6v10h-3.2V303.7z"/>
		<path class="st0" d="M412.9,306.2h-1.6v-2.5h1.6v-2.2c0-1.6,0.4-2.7,1.3-3.5c0.8-0.7,1.9-1,3.1-1h2.1v3.1h-1.8
			c-1,0-1.4,0.4-1.4,1.4v2.2h3.2v2.5h-3.2v14h-3.2V306.2z"/>
		<path class="st0" d="M431.3,318.7L431.3,318.7c-0.4,0.6-0.8,1-1.4,1.2c-0.6,0.3-1.5,0.4-2.6,0.4c-1.8,0-3.2-0.5-4.1-1.5
			c-1-0.9-1.5-2.1-1.5-3.6c0-1.4,0.4-2.5,1.3-3.5c0.9-0.9,2.2-1.4,3.9-1.4h4.4v-1.8c0-1.5-1.1-2.2-3.3-2.1c-0.8,0-1.4,0.1-1.9,0.3
			c-0.5,0.2-0.9,0.5-1.2,1l-2.5-2c1.2-1.6,3-2.4,5.4-2.4c2,0,3.6,0.4,4.8,1.2c1.2,0.8,1.8,2.3,1.8,4.3v11.3h-3.2V318.7z
			 M431.3,313.2h-3.9c-1.9,0-2.8,0.7-2.8,2c0,0.5,0.2,1,0.7,1.4c0.5,0.4,1.2,0.7,2.3,0.7c1.3,0,2.3-0.1,2.8-0.5
			c0.5-0.4,0.8-1.2,0.8-2.4V313.2z"/>
		<path class="st0" d="M440.7,297h3.2v3.3h-3.2V297z M440.7,303.7h3.2v16.5h-3.2V303.7z"/>
		<path class="st0" d="M450.1,298.6h3.2v5h2.3v2.5h-2.3v9.6c0,0.8,0.4,1.2,1.1,1.2h1.2v3.1H454c-1.1,0-2.1-0.4-2.8-1.1
			c-0.7-0.7-1.1-1.7-1.1-3v-9.9h-1.6v-2.5h1.6V298.6z"/>
		<path class="st0" d="M460.9,315.1c1.3,1.4,3,2.1,5.1,2.1c0.9,0,1.7-0.2,2.3-0.6c0.6-0.4,0.9-0.9,0.9-1.6c0-0.6-0.2-1-0.5-1.2
			c-0.4-0.2-0.8-0.4-1.4-0.4l-2.9-0.3c-1.3-0.1-2.4-0.6-3.3-1.4c-0.9-0.8-1.3-1.9-1.3-3.3c0-1.7,0.6-3,1.7-3.8
			c1.1-0.9,2.5-1.3,4.2-1.3c0.7,0,1.4,0,2,0.1c0.6,0.1,1.1,0.3,1.6,0.4c1,0.4,1.9,1,2.7,1.7l-2,2.4c-0.6-0.5-1.3-0.8-2-1.1
			c-0.7-0.3-1.5-0.4-2.4-0.4c-1,0-1.7,0.2-2.1,0.6c-0.4,0.4-0.6,0.8-0.6,1.4c0,0.4,0.1,0.7,0.5,1c0.3,0.3,0.9,0.5,1.7,0.6l2.7,0.2
			c1.7,0.1,2.9,0.6,3.6,1.6c0.7,0.9,1,2,1,3.4c0,1.6-0.7,2.8-1.9,3.7c-1.2,0.9-2.8,1.3-4.7,1.4c-2.6,0-5-1-7-3L460.9,315.1z"/>
		<path class="st0" d="M496.4,318.5c-1.1,1.2-2.4,1.9-4.1,1.9c-1,0-1.8-0.2-2.5-0.6c-0.7-0.4-1.3-0.9-1.8-1.5
			c-0.5-0.5-0.7-1.2-0.9-2.1c-0.2-0.8-0.3-2.2-0.3-4.2c0-2,0.1-3.4,0.3-4.2c0.1-0.8,0.4-1.5,0.9-2.1c0.9-1.4,2.3-2.1,4.3-2.1
			c0.8,0,1.6,0.2,2.3,0.5c0.7,0.4,1.3,0.8,1.9,1.4V297h3.2v23.2h-3.2V318.5z M493.2,306.8c-0.8,0-1.3,0.1-1.7,0.4
			c-0.4,0.3-0.8,0.7-1,1.2c-0.2,0.5-0.3,1-0.4,1.6c-0.1,0.6-0.1,1.3-0.1,1.9c0,0.6,0,1.2,0.1,1.8c0.1,0.6,0.2,1.2,0.4,1.7
			c0.2,0.5,0.5,0.9,1,1.2c0.4,0.3,1,0.5,1.7,0.5c0.8,0,1.4-0.2,1.8-0.5c0.4-0.3,0.7-0.7,0.9-1.2c0.2-0.5,0.4-1.1,0.4-1.7
			c0-0.6,0-1.2,0-1.8c0-0.6,0-1.3,0-1.8c-0.1-0.6-0.2-1.1-0.4-1.6c-0.2-0.5-0.5-0.9-0.9-1.2C494.6,306.9,494,306.8,493.2,306.8z"/>
		<path class="st0" d="M505.2,303.7h3.2v9.8c0,1.1,0.3,2,0.9,2.6c0.6,0.6,1.4,0.9,2.3,0.9c0.9,0,1.7-0.3,2.3-0.9
			c0.6-0.6,0.9-1.5,0.9-2.6v-9.8h3.2v16.5h-3.2v-1.8h-0.1c-1.1,1.3-2.5,2-4.1,2c-1.3,0-2.5-0.5-3.6-1.5c-1.2-1-1.7-2.4-1.8-4.2
			V303.7z"/>
		<path class="st0" d="M541.1,307.4h8v4.7c0,2.3-0.8,4.3-2.3,5.8c-1.5,1.6-3.4,2.4-5.7,2.4c-1.8,0-3.2-0.5-4.4-1.3
			c-1.2-0.8-2.1-1.8-2.6-2.8c-0.2-0.3-0.3-0.7-0.4-1c-0.1-0.3-0.2-0.7-0.3-1.2c-0.2-0.9-0.2-2.7-0.2-5.4c0-2.7,0.1-4.5,0.2-5.4
			c0.2-0.9,0.4-1.7,0.8-2.2c0.5-1.1,1.4-2,2.6-2.9c1.2-0.9,2.7-1.3,4.4-1.3c2.2,0,3.9,0.7,5.3,2c1.4,1.3,2.2,3,2.6,4.9h-3.6
			c-0.3-0.9-0.8-1.7-1.5-2.4c-0.8-0.6-1.7-1-2.8-1c-0.8,0-1.5,0.2-2.1,0.5c-0.6,0.3-1.1,0.7-1.4,1.2c-0.4,0.5-0.7,1.2-0.9,1.9
			c-0.2,0.8-0.2,2.4-0.2,4.7c0,2.3,0.1,3.8,0.2,4.6c0.1,0.8,0.4,1.5,0.9,2c0.4,0.5,0.8,0.9,1.4,1.2c0.6,0.4,1.3,0.5,2.1,0.5
			c1.3,0,2.4-0.5,3.3-1.4c0.9-0.9,1.3-2.1,1.3-3.5v-1.2h-4.6V307.4z"/>
		<path class="st0" d="M563.2,318.7L563.2,318.7c-0.4,0.6-0.8,1-1.5,1.2c-0.6,0.3-1.5,0.4-2.6,0.4c-1.8,0-3.2-0.5-4.1-1.5
			c-1-0.9-1.5-2.1-1.5-3.6c0-1.4,0.4-2.5,1.3-3.5c0.9-0.9,2.2-1.4,3.9-1.4h4.5v-1.8c0-1.5-1.1-2.2-3.3-2.1c-0.8,0-1.4,0.1-1.9,0.3
			c-0.5,0.2-0.9,0.5-1.1,1l-2.5-2c1.2-1.6,3-2.4,5.4-2.4c2,0,3.6,0.4,4.8,1.2c1.2,0.8,1.8,2.3,1.8,4.3v11.3h-3.2V318.7z
			 M563.2,313.2h-3.9c-1.9,0-2.8,0.7-2.8,2c0,0.5,0.2,1,0.7,1.4c0.5,0.4,1.2,0.7,2.3,0.7c1.3,0,2.3-0.1,2.9-0.5
			c0.5-0.4,0.8-1.2,0.8-2.4V313.2z"/>
		<path class="st0" d="M572.6,297h3.2v8.4c0.6-0.6,1.2-1.1,1.9-1.4c0.6-0.4,1.4-0.5,2.2-0.5c2,0,3.4,0.8,4.3,2.2
			c0.4,0.5,0.7,1.2,0.9,2c0.1,0.8,0.2,2.3,0.2,4.2c0,1.9-0.1,3.4-0.2,4.2c-0.2,0.9-0.5,1.6-0.9,2.1c-0.4,0.6-1,1.1-1.7,1.5
			c-0.7,0.4-1.6,0.6-2.6,0.6c-1.7,0-3.1-0.7-4.1-1.9v1.7h-3.2V297z M579,306.8c-0.7,0-1.3,0.2-1.7,0.5c-0.4,0.3-0.8,0.7-1,1.2
			c-0.2,0.5-0.3,1-0.4,1.6c-0.1,0.6-0.1,1.2-0.1,1.8c0,0.6,0,1.2,0.1,1.8c0.1,0.6,0.2,1.2,0.4,1.7c0.2,0.5,0.5,0.9,1,1.2
			c0.4,0.3,1,0.5,1.7,0.5c0.8,0,1.4-0.1,1.8-0.5c0.4-0.3,0.8-0.7,0.9-1.2c0.2-0.5,0.3-1.1,0.4-1.7c0-0.6,0-1.2,0-1.8
			c0-0.7,0-1.3,0-1.9c-0.1-0.6-0.2-1.1-0.4-1.6c-0.2-0.5-0.5-0.9-0.9-1.2C580.3,306.9,579.7,306.8,579,306.8z"/>
		<path class="st0" d="M591,303.7h3.2v1.8h0.1c1.1-1.3,2.4-2,4.2-2c1.3,0,2.4,0.4,3.4,1.3l-2.3,2.9c-0.7-0.6-1.4-0.8-2.1-0.8
			c-0.8,0-1.5,0.3-2.1,0.8c-0.6,0.5-1,1.4-1,2.6v10H591V303.7z"/>
		<path class="st0" d="M605.2,297h3.2v3.3h-3.2V297z M605.2,303.7h3.2v16.5h-3.2V303.7z"/>
		<path class="st0" d="M616.8,313.2c0,1.3,0.4,2.3,1.1,3c0.7,0.7,1.6,1.1,2.7,1.1c1.3,0,2.5-0.5,3.5-1.6l2.3,2
			c-1.6,1.8-3.5,2.7-5.8,2.7c-0.8,0-1.7-0.1-2.5-0.4c-0.4-0.1-0.8-0.3-1.2-0.6c-0.4-0.2-0.8-0.5-1.1-0.8c-0.7-0.6-1.2-1.5-1.7-2.6
			c-0.5-1.1-0.7-2.4-0.7-4.1c0-1.6,0.2-3,0.6-4.1c0.4-1.1,0.9-2,1.6-2.6c0.6-0.6,1.3-1.1,2.1-1.4c0.8-0.3,1.6-0.4,2.3-0.4
			c1.8,0,3.4,0.6,4.6,1.9c1.3,1.3,1.9,3,2,5.1v2.7H616.8z M623.6,310.4c0-1.3-0.4-2.3-1-2.9c-0.6-0.6-1.4-0.9-2.4-0.9
			c-1,0-1.8,0.3-2.4,0.9c-0.6,0.7-1,1.6-1,2.9H623.6z"/>
		<path class="st0" d="M632.2,297h3.2v19c0,0.7,0.4,1.1,1.2,1.1h1.1v3.1h-1.4c-1.2,0-2.1-0.3-2.9-0.9c-0.8-0.6-1.2-1.6-1.2-3.1V297z
			"/>
	</g>
</g>
</svg>
